<svg width="1659" height="1000" xmlns="http://www.w3.org/2000/svg" xmlns:xlink="http://www.w3.org/1999/xlink" xml:space="preserve" overflow="hidden"><defs><clipPath id="clip0"><rect x="1370" y="737" width="1659" height="1000"/></clipPath><clipPath id="clip1"><rect x="1375" y="742" width="1650" height="990"/></clipPath><clipPath id="clip2"><rect x="1526" y="792" width="1452" height="727"/></clipPath><clipPath id="clip3"><rect x="1526" y="792" width="1452" height="727"/></clipPath><clipPath id="clip4"><rect x="1375" y="742" width="1650" height="990"/></clipPath><clipPath id="clip5"><rect x="1375" y="742" width="1650" height="990"/></clipPath><clipPath id="clip6"><rect x="1375" y="742" width="1650" height="990"/></clipPath><clipPath id="clip7"><rect x="1375" y="742" width="1650" height="990"/></clipPath><clipPath id="clip8"><rect x="1375" y="742" width="1650" height="990"/></clipPath><clipPath id="clip9"><rect x="1375" y="742" width="1650" height="990"/></clipPath><clipPath id="clip10"><rect x="1375" y="742" width="1650" height="990"/></clipPath><clipPath id="clip11"><rect x="1375" y="742" width="1650" height="990"/></clipPath><clipPath id="clip12"><rect x="1375" y="742" width="1650" height="990"/></clipPath><clipPath id="clip13"><rect x="1375" y="742" width="1650" height="990"/></clipPath><clipPath id="clip14"><rect x="1375" y="742" width="1650" height="990"/></clipPath><clipPath id="clip15"><rect x="1375" y="742" width="1650" height="990"/></clipPath><clipPath id="clip16"><rect x="1375" y="742" width="1650" height="990"/></clipPath><clipPath id="clip17"><rect x="1375" y="742" width="1650" height="990"/></clipPath><clipPath id="clip18"><rect x="1375" y="742" width="1650" height="990"/></clipPath><clipPath id="clip19"><rect x="1375" y="742" width="1650" height="990"/></clipPath><clipPath id="clip20"><rect x="1375" y="742" width="1650" height="990"/></clipPath><clipPath id="clip21"><rect x="1375" y="742" width="1650" height="990"/></clipPath><clipPath id="clip22"><rect x="1375" y="742" width="1650" height="990"/></clipPath><clipPath id="clip23"><rect x="1375" y="742" width="1650" height="990"/></clipPath><clipPath id="clip24"><rect x="1375" y="742" width="1650" height="990"/></clipPath><clipPath id="clip25"><rect x="1375" y="742" width="1650" height="990"/></clipPath></defs><g clip-path="url(#clip0)" transform="translate(-1370 -737)"><rect x="1375" y="743" width="1650" height="989" fill="#FFFFFF" fill-opacity="1"/><g clip-path="url(#clip1)"><path d="M1526.5 1425.55 2974.5 1425.55M1526.5 1335.54 2974.5 1335.54M1526.5 1244.54 2974.5 1244.54M1526.5 1154.54 2974.5 1154.54M1526.5 1063.54 2974.5 1063.54M1526.5 973.532 2974.5 973.532M1526.5 883.529 2974.5 883.529M1526.5 792.5 2974.5 792.5" stroke="#D9D9D9" stroke-width="3.4375" stroke-linecap="butt" stroke-linejoin="round" stroke-miterlimit="10" stroke-opacity="1" fill="none" fill-rule="nonzero"/></g><g clip-path="url(#clip2)"><path d="M1744.06 1068.04 2033.07 1068.04 2033.07 1516 1744.06 1516ZM2468.08 1251.04 2757.09 1251.04 2757.09 1516 2468.08 1516Z" fill="#4472C4" fill-rule="nonzero" fill-opacity="1"/></g><g clip-path="url(#clip3)"><path d="M1744.06 793 2033.07 793 2033.07 1068.04 1744.06 1068.04ZM2468.08 793 2757.09 793 2757.09 1251.04 2468.08 1251.04Z" fill="#ED7D31" fill-rule="nonzero" fill-opacity="1"/></g><g clip-path="url(#clip4)"><path d="M1526.5 1515.5 2974.5 1515.5" stroke="#D9D9D9" stroke-width="3.4375" stroke-linecap="butt" stroke-linejoin="round" stroke-miterlimit="10" stroke-opacity="1" fill="none" fill-rule="evenodd"/></g><g clip-path="url(#clip5)"><text fill="#404040" fill-opacity="1" font-family="Calibri,Calibri_MSFontService,sans-serif" font-style="normal" font-variant="normal" font-weight="400" font-stretch="normal" font-size="41" text-anchor="start" direction="ltr" writing-mode="lr-tb" unicode-bidi="normal" text-decoration="none" transform="matrix(1 0 0 1 1846.83 1306)">2479</text></g><g clip-path="url(#clip6)"><text fill="#404040" fill-opacity="1" font-family="Calibri,Calibri_MSFontService,sans-serif" font-style="normal" font-variant="normal" font-weight="400" font-stretch="normal" font-size="41" text-anchor="start" direction="ltr" writing-mode="lr-tb" unicode-bidi="normal" text-decoration="none" transform="matrix(1 0 0 1 2570.8 1397)">1464</text></g><g clip-path="url(#clip7)"><text fill="#404040" fill-opacity="1" font-family="Calibri,Calibri_MSFontService,sans-serif" font-style="normal" font-variant="normal" font-weight="400" font-stretch="normal" font-size="41" text-anchor="start" direction="ltr" writing-mode="lr-tb" unicode-bidi="normal" text-decoration="none" transform="matrix(1 0 0 1 1846.83 944)">1521</text></g><g clip-path="url(#clip8)"><text fill="#404040" fill-opacity="1" font-family="Calibri,Calibri_MSFontService,sans-serif" font-style="normal" font-variant="normal" font-weight="400" font-stretch="normal" font-size="41" text-anchor="start" direction="ltr" writing-mode="lr-tb" unicode-bidi="normal" text-decoration="none" transform="matrix(1 0 0 1 2570.8 1036)">2536</text></g><g clip-path="url(#clip9)"><text fill="#595959" fill-opacity="1" font-family="Calibri,Calibri_MSFontService,sans-serif" font-style="normal" font-variant="normal" font-weight="400" font-stretch="normal" font-size="41" text-anchor="start" direction="ltr" writing-mode="lr-tb" unicode-bidi="normal" text-decoration="none" transform="matrix(1 0 0 1 1467.49 1526)">0</text></g><g clip-path="url(#clip10)"><text fill="#595959" fill-opacity="1" font-family="Calibri,Calibri_MSFontService,sans-serif" font-style="normal" font-variant="normal" font-weight="400" font-stretch="normal" font-size="41" text-anchor="start" direction="ltr" writing-mode="lr-tb" unicode-bidi="normal" text-decoration="none" transform="matrix(1 0 0 1 1425.69 1436)">500</text></g><g clip-path="url(#clip11)"><text fill="#595959" fill-opacity="1" font-family="Calibri,Calibri_MSFontService,sans-serif" font-style="normal" font-variant="normal" font-weight="400" font-stretch="normal" font-size="41" text-anchor="start" direction="ltr" writing-mode="lr-tb" unicode-bidi="normal" text-decoration="none" transform="matrix(1 0 0 1 1404.79 1346)">1000</text></g><g clip-path="url(#clip12)"><text fill="#595959" fill-opacity="1" font-family="Calibri,Calibri_MSFontService,sans-serif" font-style="normal" font-variant="normal" font-weight="400" font-stretch="normal" font-size="41" text-anchor="start" direction="ltr" writing-mode="lr-tb" unicode-bidi="normal" text-decoration="none" transform="matrix(1 0 0 1 1404.79 1255)">1500</text></g><g clip-path="url(#clip13)"><text fill="#595959" fill-opacity="1" font-family="Calibri,Calibri_MSFontService,sans-serif" font-style="normal" font-variant="normal" font-weight="400" font-stretch="normal" font-size="41" text-anchor="start" direction="ltr" writing-mode="lr-tb" unicode-bidi="normal" text-decoration="none" transform="matrix(1 0 0 1 1404.79 1165)">2000</text></g><g clip-path="url(#clip14)"><text fill="#595959" fill-opacity="1" font-family="Calibri,Calibri_MSFontService,sans-serif" font-style="normal" font-variant="normal" font-weight="400" font-stretch="normal" font-size="41" text-anchor="start" direction="ltr" writing-mode="lr-tb" unicode-bidi="normal" text-decoration="none" transform="matrix(1 0 0 1 1404.79 1075)">2500</text></g><g clip-path="url(#clip15)"><text fill="#595959" fill-opacity="1" font-family="Calibri,Calibri_MSFontService,sans-serif" font-style="normal" font-variant="normal" font-weight="400" font-stretch="normal" font-size="41" text-anchor="start" direction="ltr" writing-mode="lr-tb" unicode-bidi="normal" text-decoration="none" transform="matrix(1 0 0 1 1404.79 984)">3000</text></g><g clip-path="url(#clip16)"><text fill="#595959" fill-opacity="1" font-family="Calibri,Calibri_MSFontService,sans-serif" font-style="normal" font-variant="normal" font-weight="400" font-stretch="normal" font-size="41" text-anchor="start" direction="ltr" writing-mode="lr-tb" unicode-bidi="normal" text-decoration="none" transform="matrix(1 0 0 1 1404.79 894)">3500</text></g><g clip-path="url(#clip17)"><text fill="#595959" fill-opacity="1" font-family="Calibri,Calibri_MSFontService,sans-serif" font-style="normal" font-variant="normal" font-weight="400" font-stretch="normal" font-size="41" text-anchor="start" direction="ltr" writing-mode="lr-tb" unicode-bidi="normal" text-decoration="none" transform="matrix(1 0 0 1 1404.79 803)">4000</text></g><g clip-path="url(#clip18)"><text fill="#595959" fill-opacity="1" font-family="DengXian,DengXian_MSFontService,sans-serif" font-style="normal" font-variant="normal" font-weight="400" font-stretch="normal" font-size="41" text-anchor="start" direction="ltr" writing-mode="lr-tb" unicode-bidi="normal" text-decoration="none" transform="matrix(1 0 0 1 1826.75 1582)">训练后</text></g><g clip-path="url(#clip19)"><text fill="#595959" fill-opacity="1" font-family="DengXian,DengXian_MSFontService,sans-serif" font-style="normal" font-variant="normal" font-weight="400" font-stretch="normal" font-size="41" text-anchor="start" direction="ltr" writing-mode="lr-tb" unicode-bidi="normal" text-decoration="none" transform="matrix(1 0 0 1 2550.72 1582)">训练前</text></g><g clip-path="url(#clip20)"><rect x="1972" y="1655" width="22" height="22.9996" fill="#4472C4" fill-opacity="1"/></g><g clip-path="url(#clip21)"><text fill="#595959" fill-opacity="1" font-family="DengXian,DengXian_MSFontService,sans-serif" font-style="normal" font-variant="normal" font-weight="400" font-stretch="normal" font-size="41" text-anchor="start" direction="ltr" writing-mode="lr-tb" unicode-bidi="normal" text-decoration="none" transform="matrix(1 0 0 1 2003.88 1675)">绕过</text></g><g clip-path="url(#clip22)"><text fill="#595959" fill-opacity="1" font-family="Calibri,Calibri_MSFontService,sans-serif" font-style="normal" font-variant="normal" font-weight="400" font-stretch="normal" font-size="41" text-anchor="start" direction="ltr" writing-mode="lr-tb" unicode-bidi="normal" text-decoration="none" transform="matrix(1 0 0 1 2086.38 1675)">WAF</text></g><g clip-path="url(#clip23)"><rect x="2209" y="1655" width="23" height="22.9996" fill="#ED7D31" fill-opacity="1"/></g><g clip-path="url(#clip24)"><text fill="#595959" fill-opacity="1" font-family="DengXian,DengXian_MSFontService,sans-serif" font-style="normal" font-variant="normal" font-weight="400" font-stretch="normal" font-size="41" text-anchor="start" direction="ltr" writing-mode="lr-tb" unicode-bidi="normal" text-decoration="none" transform="matrix(1 0 0 1 2241.58 1675)">未绕过</text></g><g clip-path="url(#clip25)"><text fill="#595959" fill-opacity="1" font-family="Calibri,Calibri_MSFontService,sans-serif" font-style="normal" font-variant="normal" font-weight="400" font-stretch="normal" font-size="41" text-anchor="start" direction="ltr" writing-mode="lr-tb" unicode-bidi="normal" text-decoration="none" transform="matrix(1 0 0 1 2365.33 1675)">WAF</text></g><rect x="1375.5" y="743.5" width="1650" height="989" stroke="#FFFFFF" stroke-width="3.4375" stroke-linecap="butt" stroke-linejoin="round" stroke-miterlimit="10" stroke-opacity="1" fill="none"/></g></svg>